HIERARCHY
ROOT hips
{
  OFFSET 0 9.815833067270322 1.281835130624493
  CHANNELS 6 Xposition Yposition Zposition Yrotation Xrotation Zrotation
  JOINT spine
  {
    OFFSET -6.807828027342062e-31 0.5511052078645924 0
    CHANNELS 3 Yrotation Xrotation Zrotation
    JOINT chest
    {
      OFFSET 0 1.2043438549513348 0
      CHANNELS 3 Yrotation Xrotation Zrotation
      JOINT upperChest
      {
        OFFSET 0 1.1572743564610968 0
        CHANNELS 3 Yrotation Xrotation Zrotation
        JOINT neck
        {
          OFFSET 0 1.4672838981332694 0
          CHANNELS 3 Yrotation Xrotation Zrotation
          JOINT head
          {
            OFFSET 0 0.7769233259443401 0
            CHANNELS 3 Yrotation Xrotation Zrotation
            JOINT leftEye
            {
              OFFSET 0.2721652001183514 0.7168723163648669 0.17193742873055579
              CHANNELS 3 Yrotation Xrotation Zrotation
              End Site
              {
                OFFSET 0.2721652001183514 0.7168723163648669 0.17193742873055579
              }
            }
            JOINT rightEye
            {
              OFFSET -0.27216526610280267 0.7168709402323974 0.1719378121450697
              CHANNELS 3 Yrotation Xrotation Zrotation
              End Site
              {
                OFFSET -0.27216526610280267 0.7168709402323974 0.1719378121450697
              }
            }
          }
        }
        JOINT leftShoulder
        {
          OFFSET 0.4003006608521876 1.1228120285947116 0
          CHANNELS 3 Yrotation Xrotation Zrotation
          JOINT leftUpperArm
          {
            OFFSET 1.1829713490941076 0 0
            CHANNELS 3 Yrotation Xrotation Zrotation
            JOINT leftLowerArm
            {
              OFFSET 2.3403355087682653 0 0
              CHANNELS 3 Yrotation Xrotation Zrotation
              JOINT leftHand
              {
                OFFSET 2.263135184842559 0 0
                CHANNELS 3 Yrotation Xrotation Zrotation
                JOINT leftIndexProximal
                {
                  OFFSET 0.6908871347590931 0.07757415291299052 0.19323856470480705
                  CHANNELS 3 Yrotation Xrotation Zrotation
                  JOINT leftIndexIntermediate
                  {
                    OFFSET 0.34863098734703823 -0.01007918696325305 -0.013463491561925514
                    CHANNELS 3 Yrotation Xrotation Zrotation
                    JOINT leftIndexDistal
                    {
                      OFFSET 0.2146456611185532 -0.0074721772400270225 -0.007179731675015122
                      CHANNELS 3 Yrotation Xrotation Zrotation
                      End Site
                      {
                        OFFSET 0.2146456611185532 -0.0074721772400270225 -0.007179731675015122
                      }
                    }
                  }
                }
                JOINT leftLittleProximal
                {
                  OFFSET 0.641031137590224 0.07757409788358327 -0.30666317901156426
                  CHANNELS 3 Yrotation Xrotation Zrotation
                  JOINT leftLittleIntermediate
                  {
                    OFFSET 0.3298813033034196 5.349700815671099e-8 8.442660452689932e-8
                    CHANNELS 3 Yrotation Xrotation Zrotation
                    JOINT leftLittleDistal
                    {
                      OFFSET 0.1900652342264466 0.0029551914829850645 0.0036537189326710517
                      CHANNELS 3 Yrotation Xrotation Zrotation
                      End Site
                      {
                        OFFSET 0.1900652342264466 0.0029551914829850645 0.0036537189326710517
                      }
                    }
                  }
                }
                JOINT leftMiddleProximal
                {
                  OFFSET 0.6963661567547548 0.07757542338171697 0.02151546619791929
                  CHANNELS 3 Yrotation Xrotation Zrotation
                  JOINT leftMiddleIntermediate
                  {
                    OFFSET 0.38878370897355696 -0.0000012405401190740406 -1.0025342356279054e-7
                    CHANNELS 3 Yrotation Xrotation Zrotation
                    JOINT leftMiddleDistal
                    {
                      OFFSET 0.23984530190355968 7.330616180745153e-8 -7.979881885833429e-8
                      CHANNELS 3 Yrotation Xrotation Zrotation
                      End Site
                      {
                        OFFSET 0.23984530190355968 7.330616180745153e-8 -7.979881885833429e-8
                      }
                    }
                  }
                }
                JOINT leftRingProximal
                {
                  OFFSET 0.6884333933839174 0.07757410137752707 -0.1428234436272266
                  CHANNELS 3 Yrotation Xrotation Zrotation
                  JOINT leftRingIntermediate
                  {
                    OFFSET 0.3606431681907045 6.236339089582543e-8 -7.965728537895345e-8
                    CHANNELS 3 Yrotation Xrotation Zrotation
                    JOINT leftRingDistal
                    {
                      OFFSET 0.20805956907771406 -0.0025883149289516183 -0.004760848471664969
                      CHANNELS 3 Yrotation Xrotation Zrotation
                      End Site
                      {
                        OFFSET 0.20805956907771406 -0.0025883149289516183 -0.004760848471664969
                      }
                    }
                  }
                }
                JOINT leftThumbProximal
                {
                  OFFSET 0.10260636427348457 -0.15692576071650954 -0.07370661813742284
                  CHANNELS 3 Yrotation Xrotation Zrotation
                  JOINT leftThumbIntermediate
                  {
                    OFFSET 0.38487767733512546 -0.01658181295589012 0.30162561831913426
                    CHANNELS 3 Yrotation Xrotation Zrotation
                    JOINT leftThumbDistal
                    {
                      OFFSET 0.22124595789268453 -0.01760258530005454 0.2032218200391737
                      CHANNELS 3 Yrotation Xrotation Zrotation
                      End Site
                      {
                        OFFSET 0.22124595789268453 -0.01760258530005454 0.2032218200391737
                      }
                    }
                  }
                }
              }
            }
          }
        }
        JOINT rightShoulder
        {
          OFFSET -0.4003006608521876 1.1228120285947116 0
          CHANNELS 3 Yrotation Xrotation Zrotation
          JOINT rightUpperArm
          {
            OFFSET -1.1829713490941074 0 0
            CHANNELS 3 Yrotation Xrotation Zrotation
            JOINT rightLowerArm
            {
              OFFSET -2.3403355087682667 0 0
              CHANNELS 3 Yrotation Xrotation Zrotation
              JOINT rightHand
              {
                OFFSET -2.263135184842558 0 0
                CHANNELS 3 Yrotation Xrotation Zrotation
                JOINT rightIndexProximal
                {
                  OFFSET -0.6908871347590931 0.07757415291299052 0.19323856470480705
                  CHANNELS 3 Yrotation Xrotation Zrotation
                  JOINT rightIndexIntermediate
                  {
                    OFFSET -0.34863098734703823 -0.01007918696325305 -0.013463491561925514
                    CHANNELS 3 Yrotation Xrotation Zrotation
                    JOINT rightIndexDistal
                    {
                      OFFSET -0.2146456611185532 -0.0074721772400270225 -0.007179731675015122
                      CHANNELS 3 Yrotation Xrotation Zrotation
                      End Site
                      {
                        OFFSET -0.2146456611185532 -0.0074721772400270225 -0.007179731675015122
                      }
                    }
                  }
                }
                JOINT rightLittleProximal
                {
                  OFFSET -0.641031137590224 0.07757409788358327 -0.30666317901156426
                  CHANNELS 3 Yrotation Xrotation Zrotation
                  JOINT rightLittleIntermediate
                  {
                    OFFSET -0.3298813033034196 5.349700815671099e-8 8.442660452689932e-8
                    CHANNELS 3 Yrotation Xrotation Zrotation
                    JOINT rightLittleDistal
                    {
                      OFFSET -0.1900652342264466 0.0029551914829850645 0.0036537189326710517
                      CHANNELS 3 Yrotation Xrotation Zrotation
                      End Site
                      {
                        OFFSET -0.1900652342264466 0.0029551914829850645 0.0036537189326710517
                      }
                    }
                  }
                }
                JOINT rightMiddleProximal
                {
                  OFFSET -0.6963661567547548 0.07757542338171697 0.02151546619791929
                  CHANNELS 3 Yrotation Xrotation Zrotation
                  JOINT rightMiddleIntermediate
                  {
                    OFFSET -0.38878370897355696 -0.0000012405401190740406 -1.0025342356279054e-7
                    CHANNELS 3 Yrotation Xrotation Zrotation
                    JOINT rightMiddleDistal
                    {
                      OFFSET -0.23984530190355968 7.330616180745153e-8 -7.979881885833429e-8
                      CHANNELS 3 Yrotation Xrotation Zrotation
                      End Site
                      {
                        OFFSET -0.23984530190355968 7.330616180745153e-8 -7.979881885833429e-8
                      }
                    }
                  }
                }
                JOINT rightRingProximal
                {
                  OFFSET -0.6884333933839174 0.07757410137752707 -0.1428234436272266
                  CHANNELS 3 Yrotation Xrotation Zrotation
                  JOINT rightRingIntermediate
                  {
                    OFFSET -0.3606431681907045 6.236339089582543e-8 -7.965728537895345e-8
                    CHANNELS 3 Yrotation Xrotation Zrotation
                    JOINT rightRingDistal
                    {
                      OFFSET -0.20805956907771406 -0.0025883149289516183 -0.004760848471664969
                      CHANNELS 3 Yrotation Xrotation Zrotation
                      End Site
                      {
                        OFFSET -0.20805956907771406 -0.0025883149289516183 -0.004760848471664969
                      }
                    }
                  }
                }
                JOINT rightThumbProximal
                {
                  OFFSET -0.10260636427348457 -0.15692576071650954 -0.07370661813742284
                  CHANNELS 3 Yrotation Xrotation Zrotation
                  JOINT rightThumbIntermediate
                  {
                    OFFSET -0.38487767733512546 -0.01658181295589012 0.30162561831913426
                    CHANNELS 3 Yrotation Xrotation Zrotation
                    JOINT rightThumbDistal
                    {
                      OFFSET -0.22124595789268453 -0.01760258530005454 0.2032218200391737
                      CHANNELS 3 Yrotation Xrotation Zrotation
                      End Site
                      {
                        OFFSET -0.22124595789268453 -0.01760258530005454 0.2032218200391737
                      }
                    }
                  }
                }
              }
            }
          }
        }
      }
    }
  }
  JOINT leftUpperLeg
  {
    OFFSET 0.8204033191191683 -0.4254565720126001 0
    CHANNELS 3 Yrotation Xrotation Zrotation
    JOINT leftLowerLeg
    {
      OFFSET 0 -3.7377869164845747 0
      CHANNELS 3 Yrotation Xrotation Zrotation
      JOINT leftFoot
      {
        OFFSET 0 -4.3627937946580655 0.0048303595310162095
        CHANNELS 3 Yrotation Xrotation Zrotation
        JOINT leftToes
        {
          OFFSET 0 -0.6641331633617491 1.1541833284833656
          CHANNELS 3 Yrotation Xrotation Zrotation
          End Site
          {
            OFFSET 0 -0.6641331633617491 1.1541833284833656
          }
        }
      }
    }
  }
  JOINT rightUpperLeg
  {
    OFFSET -0.8204033191191683 -0.4254565720126001 0
    CHANNELS 3 Yrotation Xrotation Zrotation
    JOINT rightLowerLeg
    {
      OFFSET 0 -3.7377869164845747 0
      CHANNELS 3 Yrotation Xrotation Zrotation
      JOINT rightFoot
      {
        OFFSET 0 -4.3627937946580655 0.0048303595310162095
        CHANNELS 3 Yrotation Xrotation Zrotation
        JOINT rightToes
        {
          OFFSET 0 -0.6641331633617491 1.1541833284833656
          CHANNELS 3 Yrotation Xrotation Zrotation
          End Site
          {
            OFFSET 0 -0.6641331633617491 1.1541833284833656
          }
        }
      }
    }
  }
}
MOTION
Frames: 4
Frame Time: 0.03333333333333333
-0.019055908545851707 -0.7069549315891699 -0.044085465371608734 -3.4914376372883225 3.6944235844518065 -2.130458885287814 1.4668251833536279 2.8580974858943335 1.2148918574204275 6.712910245735227 11.512136456695702 1.0088749061737694 0 0 0 -1.3495108544695156 -3.8633946696318935 -1.4383692273545459 -1.7618832741919008 -9.235391832693608 -0.6496907089981057 0 0 0 0 0 0 -7.614181895399469 -3.174530282018009 -8.412842385331013 -13.14078208514469 28.780800730445474 -69.42367138218783 -89.42927450577588 9.895806506186846 17.882012406940795 -27.618866903193496 -3.6134685439027034 19.01404938775959 2.6924849947017675 5.827351039021838 -78.51596267358724 5.278060802649503 4.760469375645442 -93.34084167998246 3.717870321206834 1.9424215144980592 -58.40005343992202 25.825717384924108 -4.278335708090648 -84.96374616074185 4.392579925932812 2.7083949901326965 -73.62621084221686 2.4691283927030443 5.46492741389763 -89.7269842038414 9.898778005102484 1.4102518064519314 -70.65989167055322 5.361686899327587 4.160937343467649 -87.53759634489737 5.415090911883859 2.4065973187623677 -63.43897674969624 19.569368160787498 -0.15751312518601676 -77.14737580506826 4.277550235700627 5.15069291790392 -92.15268479334277 5.124949249465848 3.1822594314350074 -68.99132948313472 -1.0156862541175762 5.781844224001899 16.53375226450287 32.97285725435071 17.25542636815625 3.6560357878109886 -19.292775275262333 -6.852542473642081 0.6981278529141123 16.115490498012193 -3.5942629192471527 15.061219370051507 7.6317295681012505 7.12275161858063 55.889265297055154 98.29178251056828 36.014277103980255 -14.35963515004372 19.221226931678775 -7.022838314738743 -4.5740983140055285 -2.693185339428119 5.828011430900063 78.50900100773495 -5.2787593027502595 4.761377509045876 93.34067546041145 -3.4468678221581963 1.2709612427603842 62.068396618630594 -25.825219188778444 -4.280329277869968 84.95720187181213 -4.393255792096803 2.709012104202088 73.62611505516806 -2.4261980477536516 -0.7618737578871807 81.72191807241715 -9.898930696047582 1.4099510803368833 70.65298416563263 -5.362394096614568 4.161814774695822 87.53747794515722 -3.709748385578614 -2.272895220277562 67.20710792163625 -19.569306129176645 -0.15887596656348607 77.14061976549503 -4.278180062922402 5.15152143620653 92.15257013965669 -2.952286472458041 -3.1224265084972966 68.67874851669124 1.0148512743408091 5.779044980612435 -16.5385881060495 -32.97387013033007 17.253600805823698 -3.658379861941325 20.204035694208553 -7.0164855779699336 -0.12493320980665436 -2.3062629208232703 -28.719592159012446 5.7436147346456226 8.152726317378333 79.1664188539032 8.120766728594086 0.3305281256213861 -4.424396034253966 2.0905600534349267 -3.857927954232046e-7 0.18701575404861073 -8.66746866840111e-7 -8.49689422158226 -4.989172835693525 10.055333735802822 -1.911981847570936 37.39697082739777 -7.5381791160220395 0.43449889780163403 -14.546470560867162 -3.1215518965728717 -3.1185175153128273 -25.34628336601979 3.206119042535393
-0.009154286235570908 -0.575138067575498 -0.04660254716873169 -3.6933884227578937 3.907863665732662 -1.3921154701193068 1.7154445855891154 2.8215886175875178 1.0863215504084447 7.551067154825394 11.40952966690406 0.4581788518240799 0 0 0 -1.3526707706847678 -3.1386765132637224 -1.879106652044291 -2.1506190045207734 -9.026774343021463 0.2692520298281332 0 0 0 0 0 0 -7.424878331761367 -3.0991905432788553 -7.837504362116162 -13.575369428153042 31.337483956936726 -69.47958081272115 -91.27773153501319 11.895399533417017 18.48201886320036 -25.886672369939088 -3.2493177449316484 20.461894820268782 2.7037490136133404 5.833627582451582 -78.7452139435238 5.277120934586133 4.77615369347374 -93.54185775330596 3.7267496457608487 1.955504199131961 -58.60064206230224 25.912171961813396 -4.083250437457942 -85.32923314659345 4.406036299545307 2.7403338357218248 -74.07329914792989 2.4610684763774167 5.480294092302304 -90.1765077012539 9.9751842150351 1.5047322679118391 -71.08325239017597 5.364681025682988 4.209947447316199 -88.17269689904049 5.437247438135925 2.4656703749030457 -64.07391711783194 19.632801773769344 -0.004124949011995083 -77.59273566506269 4.2737245538612205 5.173472636060946 -92.44676158103533 5.131288640580488 3.2113669684086 -69.28407388508849 -1.0156862541175762 5.781844224001899 16.53375226450287 33.15840752614801 16.983899357889566 3.7211626392527912 -19.302002110168498 -6.844344100655135 0.8555064489172006 16.65621574695539 -3.7097800126956244 15.169914068627419 7.922287558971329 6.218522361418355 55.757494621743426 99.16349356258296 37.13375365460052 -14.521753646870982 19.23458051927276 -7.227835713270274 -3.622871121748584 -2.6909068477705325 5.79575826540016 78.13851626921969 -5.280832374184087 4.723225370401416 92.8518407461926 -3.4194079265858957 1.241724099292235 61.58053539531487 -25.65855377397618 -4.370248691052851 84.24554288942396 -4.3811939652456475 2.6809328765966964 73.23234631119736 -2.3902693769819625 -0.7750658006558078 81.32735038804164 -9.879386561783685 1.3851296194395555 70.31700899471711 -5.361465642018113 4.148733446381727 87.36769278371835 -3.68988682466027 -2.283572415365304 67.03750582996939 -19.53865119267859 -0.24542249409928885 76.7925141239923 -4.2793448882454665 5.144267544375848 92.05888211175086 -2.9522664056155534 -3.1224166755026075 68.67875453937965 1.0148512743408091 5.779044980612435 -16.5385881060495 -33.13990122010887 17.08674071415899 -3.664588635055061 20.173903908039623 -7.0491297619544975 0.3601323063883557 -2.1534447489142203 -28.387538071244002 4.6455133890112865 11.586108512263468 73.07988572267934 11.150359969030267 0.7434602848641997 -4.127609375148898 -1.6072692616538808 0.1733756494951485 0.12085000166627656 0.46738476894752073 -9.065070631737022 -2.2870840045898473 8.470817854501659 -0.012817009807086598 33.59782058021017 -6.719425332695523 0.36721726980274944 -7.253227073359465 -3.346074952506561 -2.8217371548166708 -30.462160608051896 3.0418185268694438
0.013616273179650307 -0.31842992243389645 -0.04675859212875366 -3.9628291844037515 4.306544540855823 0.03103809781859864 2.1521516282038875 2.761461332535827 0.7863516839621563 8.985394677252524 11.279626480570487 -0.8122072503718175 0 0 0 -1.522098067961313 -2.090907493728602 -2.2580663351583254 -2.7772700281011615 -8.694714282468329 1.5785400742551747 0 0 0 0 0 0 -6.867586125870746 -3.0887676360983405 -7.6319893097510985 -13.59056216660007 36.48607769578794 -68.31381358424146 -95.57817970534832 15.106657479792327 19.51575897447331 -22.015025035958036 -3.036617650314026 21.512703217133456 2.697014621104142 5.794886804185302 -79.86783778450892 5.274992054004754 4.8084628751833645 -93.95657126349559 3.744887419416315 1.9825967740753885 -59.01455139290017 26.13778361312033 -3.547944338474099 -86.48411521541578 4.433898825738582 2.816164647293546 -75.02102752901796 2.4435431745735094 5.5126853604253325 -91.13003704560542 10.160446480633105 1.7493478997577658 -72.46880241245532 5.369625446526871 4.326338651473905 -89.68031604959532 5.481964047294754 2.5914472118751872 -65.41702528403516 19.788938691027056 0.42091232594284606 -79.01114694375941 4.264525778934882 5.225909915174695 -93.12409512708022 5.145321845185472 3.278454356492358 -69.9583177489784 -1.0156862541175762 5.781844224001899 16.53375226450287 33.89455130800245 15.91707728564253 3.958124114895902 -19.32486767979038 -6.823877159350694 1.246940933109514 17.718743740312053 -3.9429177509779647 15.38031453262388 8.512023188574041 4.434035753197347 55.53762435830303 100.90213890431855 39.23361882174777 -14.828694310476859 19.57638752289197 -7.626548952710155 -1.7449666235734933 -2.7067132839345067 5.836752792605083 76.9585370200178 -5.283754675055699 4.653875631562271 91.96333875862219 -3.3688240623655616 1.1892147014471601 60.69368238414465 -25.147223150314737 -4.625816614721278 82.03914155771352 -4.362844344415915 2.6392137357999528 72.64546856343044 -2.336596769126248 -0.7942085605462774 80.73960534319593 -9.802085443632933 1.3477756839708388 69.19854383530482 -5.359755742756453 4.1245427828835775 87.05447335342424 -3.6531546038608216 -2.3030218019785687 66.72452562378348 -19.44179456256708 -0.5086083385179472 75.72902059869932 -4.281262750344786 5.132464930944246 91.90522807397268 -2.9522175566961146 -3.1224119727660495 68.67876091154672 1.0148512743408091 5.779044980612435 -16.5385881060495 -33.623939619843625 16.602990080919994 -3.6747574354704478 20.098785208520482 -7.1287057197001795 1.5551971707877208 -1.973264346925708 -27.250812177918476 2.1495617164184138 16.12348117766875 59.54731916385301 14.3238075015284 1.0065562461854825 -2.8664550438585077 -4.113189232193429 -0.21168496993701136 -0.651118552545203 0.4841476442573128 -10.601627910836653 3.7655313430283437 5.027468196729076 4.502952269693018 23.136375131558694 -4.513241647526923 0.3046890762748853 11.776744728529726 -2.521525422919988 -0.09633715811987009 -41.97251258960531 0.9012645665293672
0.044853031635284424 -0.11001584467510739 -0.045341938734054565 -3.8830832181127697 5.318817918704746 1.2172444993546392 2.4511859588307914 2.589092873398671 0.4324346503897142 9.882213172994943 10.715252164686285 -2.2695285206853355 0 0 0 -1.925663520652921 -1.9460301452180855 -1.8340121551225328 -3.1646385473674186 -8.538453355050585 1.9518454460112051 0 0 0 0 0 0 -5.999611688932873 -3.2467657714568348 -8.71962589820837 -12.122538786935294 41.28999754084708 -65.22918904413558 -100.25263358951975 16.98396720366452 21.168087157046696 -17.359938892769264 -3.2341661248322846 19.468264647573406 2.6761637000342455 5.731548764588328 -81.24029231166715 5.2730596221559445 4.8352016476293995 -94.3002002515803 3.759779123228896 2.0051425781989476 -59.357518450567625 26.31904542061543 -3.090626014496662 -87.62555715890642 4.45556146509006 2.8784532588682463 -75.79321318552752 2.4289271962504113 5.538847459151397 -91.90690422864057 10.329233097609498 1.9914051169949145 -73.86214318254984 5.371407989584079 4.424473531715774 -90.95061028718555 5.506979483643085 2.6662116686316093 -66.2104567936638 19.92506384865952 0.83470083979378 -80.4344326357664 4.2568942880833305 5.267039884029308 -93.65646825490082 5.155678740942668 3.331125442303262 -70.48829014624222 -1.0156862541175762 5.781844224001899 16.53375226450287 34.795793394703416 14.610121302072693 4.228239808056048 -19.34322563757821 -6.807185753368641 1.56356417845656 18.85989843908696 -4.189220227284453 15.57487250395881 9.176147153123463 2.502999360783403 55.38832445906352 102.65251791894967 41.29675190976313 -15.265293933314029 20.459415918445217 -8.082633298630437 0.25129127045270655 -2.7886364549985108 6.114799117268771 74.75842870041755 -5.285634272144815 4.5838239600809025 91.06622312415257 -3.3169400895008283 1.1369887437805737 59.79805798101255 -24.351390142372292 -5.044453011937458 78.45881040491902 -4.346377000544211 2.602767498258435 72.13056442412682 -2.2893933954255687 -0.810572043433606 80.22448117463897 -9.641137595182512 1.329678960596004 66.97548164608061 -5.357380560365283 4.094673122790203 86.66672918150316 -3.607536075724807 -2.3269132385314326 66.33715600702777 -19.254005325335182 -0.9804347374415341 73.80182072475742 -4.2832479911636225 5.119935206542736 91.74331915000849 -2.9521941115482107 -3.122401284728496 68.67878375873656 1.0148512743408091 5.779044980612435 -16.5385881060495 -33.97826548199687 16.25040974971288 -3.6789252571352993 19.9932736974583 -7.234307564398931 3.184613148617581 -2.162284483670841 -26.160211436898056 -0.5655979994922675 17.524430857159906 44.93689544162475 13.949731236802993 0.8372207608128516 -2.191980583142923 -3.878729450131895 -0.4206248662778909 -0.6434944542967368 -0.19345852336053496 -12.805737087026401 8.225142165727323 2.0369040807362992 5.55514973593435 14.701453408467025 -4.536772755032254 2.154158086731502 24.38018543830133 2.333985696218983 6.1642913535902855 -42.13819461843884 -6.6470897601793935
